<svg t="1579488184883" class="icon" viewBox="0 0 1024 1024" version="1.1" xmlns="http://www.w3.org/2000/svg" p-id="28854" width="200" height="200"><path d="M512 118.9c216.8 0 393.1 176.3 393.1 393.1S728.8 905.1 512 905.1 118.9 728.8 118.9 512 295.2 118.9 512 118.9z m0-54.2C264.9 64.7 64.7 264.9 64.7 512S264.9 959.3 512 959.3 959.3 759.1 959.3 512 759.1 64.7 512 64.7zM362.9 335.8c-29.9 0-54.2 24.3-54.2 54.2 0 29.9 24.3 54.2 54.2 54.2 29.9 0 54.2-24.3 54.2-54.2 0-29.9-24.3-54.2-54.2-54.2z m325.3 0c-29.9 0-54.2 24.3-54.2 54.2 0 29.9 24.3 54.2 54.2 54.2s54.2-24.3 54.2-54.2c0-29.9-24.2-54.2-54.2-54.2z m54.2 341.9c-60.6-62.2-143.8-98-228.3-98-89.3-0.1-174.2 35.9-232.5 98.4l46.5 36.7c46.7-50 114.6-78.8 186.1-78.8 67.1 0 133.7 28.9 182.7 79.2l45.5-37.5z" fill="#d81e06" p-id="28855"></path></svg>